<svg xmlns="http://www.w3.org/2000/svg" xmlns:xlink="http://www.w3.org/1999/xlink" width="250" zoomAndPan="magnify" viewBox="0 0 187.5 187.499992" height="250" preserveAspectRatio="xMidYMid meet" version="1.0"><defs><clipPath id="831494c035"><path d="M 20.550781 18.699219 L 168.59375 18.699219 L 168.59375 169.796875 L 20.550781 169.796875 Z M 20.550781 18.699219 " clip-rule="nonzero"/></clipPath><clipPath id="7e888a005e"><path d="M 154 155.863281 L 161 155.863281 L 161 161.847656 L 154 161.847656 Z M 154 155.863281 " clip-rule="nonzero"/></clipPath><clipPath id="9ad9ea1da8"><path d="M 153.398438 157 L 162.375 157 L 162.375 160 L 153.398438 160 Z M 153.398438 157 " clip-rule="nonzero"/></clipPath><clipPath id="3bc7ea59bc"><path d="M 160 155.863281 L 162 155.863281 L 162 158 L 160 158 Z M 160 155.863281 " clip-rule="nonzero"/></clipPath></defs><g clip-path="url(#831494c035)"><path fill="#ffffff" d="M 79.167969 18.699219 C 46.796875 18.699219 20.488281 44.925781 20.488281 77.203125 C 20.488281 109.476562 46.796875 135.703125 79.167969 135.703125 C 91.980469 135.703125 103.816406 131.589844 113.472656 124.628906 L 158.882812 169.796875 L 168.59375 160.117188 L 123.71875 115.269531 C 132.539062 105.027344 137.847656 91.734375 137.847656 77.203125 C 137.847656 44.925781 111.542969 18.699219 79.167969 18.699219 Z M 79.167969 25.582031 C 107.808594 25.582031 130.945312 48.652344 130.945312 77.203125 C 130.945312 105.753906 107.808594 128.820312 79.167969 128.820312 C 50.53125 128.820312 27.390625 105.753906 27.390625 77.203125 C 27.390625 48.652344 50.53125 25.582031 79.167969 25.582031 Z M 79.167969 25.582031 " fill-opacity="1" fill-rule="nonzero"/></g><g clip-path="url(#7e888a005e)"><path fill="#000000" d="M 154.632812 158.460938 C 154.628906 158.519531 154.628906 158.578125 154.628906 158.640625 C 154.617188 158.664062 154.601562 158.691406 154.59375 158.714844 C 154.601562 158.628906 154.617188 158.542969 154.632812 158.460938 Z M 155.867188 156.5625 C 155.8125 156.625 155.761719 156.691406 155.71875 156.765625 C 155.613281 156.820312 155.519531 156.875 155.433594 156.9375 C 155.566406 156.800781 155.710938 156.671875 155.867188 156.5625 Z M 159.820312 156.9375 C 159.734375 156.875 159.640625 156.820312 159.535156 156.765625 C 159.492188 156.691406 159.441406 156.621094 159.386719 156.5625 C 159.527344 156.660156 159.660156 156.773438 159.785156 156.898438 C 159.800781 156.910156 159.808594 156.921875 159.820312 156.9375 Z M 160.625 158.640625 C 160.628906 158.578125 160.625 158.519531 160.621094 158.457031 C 160.640625 158.542969 160.652344 158.625 160.660156 158.710938 C 160.652344 158.6875 160.640625 158.664062 160.625 158.640625 Z M 160.613281 159.695312 C 160.609375 159.582031 160.574219 159.46875 160.519531 159.359375 C 160.574219 159.15625 160.609375 158.953125 160.621094 158.75 C 160.652344 158.824219 160.671875 158.898438 160.679688 158.972656 C 160.679688 159 160.679688 159.03125 160.679688 159.058594 C 160.679688 159.273438 160.660156 159.488281 160.613281 159.695312 Z M 159.71875 161.28125 C 159.726562 161.273438 159.730469 161.261719 159.738281 161.25 C 159.761719 161.230469 159.785156 161.210938 159.808594 161.191406 C 159.800781 161.199219 159.792969 161.210938 159.785156 161.21875 C 159.765625 161.238281 159.742188 161.261719 159.71875 161.28125 Z M 155.445312 161.191406 C 155.46875 161.210938 155.492188 161.230469 155.515625 161.25 C 155.523438 161.261719 155.527344 161.269531 155.535156 161.28125 C 155.511719 161.261719 155.488281 161.238281 155.46875 161.21875 C 155.460938 161.207031 155.453125 161.199219 155.445312 161.191406 Z M 154.933594 158.339844 C 154.9375 158.539062 154.960938 158.742188 155.011719 158.949219 C 155.015625 158.964844 155.019531 158.980469 155.023438 158.996094 C 154.996094 159.019531 154.96875 159.046875 154.945312 159.070312 C 154.867188 159.148438 154.804688 159.226562 154.757812 159.304688 C 154.703125 159.101562 154.671875 158.890625 154.664062 158.683594 C 154.726562 158.5625 154.816406 158.445312 154.933594 158.339844 Z M 154.765625 157.988281 C 154.824219 157.875 154.910156 157.765625 155.019531 157.667969 C 154.964844 157.859375 154.9375 158.0625 154.933594 158.273438 C 154.90625 158.296875 154.875 158.324219 154.847656 158.351562 C 154.773438 158.425781 154.710938 158.503906 154.664062 158.582031 C 154.664062 158.460938 154.671875 158.34375 154.6875 158.226562 C 154.710938 158.144531 154.738281 158.066406 154.765625 157.988281 Z M 155.230469 157.164062 C 155.210938 157.203125 155.191406 157.238281 155.171875 157.273438 C 155.148438 157.296875 155.128906 157.316406 155.105469 157.335938 C 155.144531 157.277344 155.1875 157.21875 155.230469 157.164062 Z M 155.601562 156.992188 C 155.464844 157.0625 155.34375 157.140625 155.238281 157.222656 C 155.273438 157.160156 155.308594 157.101562 155.347656 157.042969 C 155.445312 156.960938 155.558594 156.886719 155.6875 156.820312 C 155.65625 156.875 155.628906 156.933594 155.601562 156.992188 Z M 156.257812 156.59375 C 156.230469 156.648438 156.207031 156.707031 156.1875 156.765625 C 156.101562 156.792969 156.015625 156.820312 155.933594 156.851562 C 155.832031 156.886719 155.738281 156.929688 155.652344 156.96875 C 155.679688 156.90625 155.707031 156.847656 155.742188 156.792969 C 155.898438 156.714844 156.070312 156.648438 156.257812 156.59375 Z M 156.019531 156.460938 C 156.066406 156.433594 156.109375 156.40625 156.15625 156.382812 C 156.257812 156.335938 156.371094 156.292969 156.488281 156.257812 C 156.40625 156.339844 156.335938 156.4375 156.277344 156.550781 C 156.097656 156.605469 155.929688 156.667969 155.773438 156.738281 C 155.84375 156.632812 155.929688 156.539062 156.019531 156.460938 Z M 156.539062 156.207031 C 156.53125 156.207031 156.523438 156.210938 156.515625 156.214844 C 156.527344 156.210938 156.535156 156.207031 156.546875 156.203125 C 156.542969 156.203125 156.542969 156.203125 156.539062 156.207031 Z M 157.0625 156.097656 C 156.90625 156.121094 156.753906 156.148438 156.613281 156.1875 C 156.613281 156.183594 156.613281 156.179688 156.613281 156.175781 C 156.773438 156.121094 156.9375 156.078125 157.105469 156.050781 C 157.089844 156.0625 157.074219 156.082031 157.0625 156.097656 Z M 158.640625 156.1875 C 158.5 156.148438 158.347656 156.117188 158.191406 156.097656 C 158.179688 156.082031 158.164062 156.0625 158.152344 156.050781 C 158.316406 156.078125 158.484375 156.121094 158.640625 156.175781 C 158.640625 156.179688 158.640625 156.183594 158.640625 156.1875 Z M 158.710938 156.203125 C 158.710938 156.203125 158.710938 156.203125 158.707031 156.199219 C 158.71875 156.203125 158.726562 156.207031 158.738281 156.210938 C 158.730469 156.210938 158.722656 156.207031 158.710938 156.203125 Z M 159.605469 156.96875 C 159.515625 156.925781 159.421875 156.886719 159.320312 156.851562 C 159.238281 156.820312 159.15625 156.792969 159.066406 156.765625 C 159.046875 156.707031 159.023438 156.648438 158.996094 156.59375 C 159.183594 156.648438 159.359375 156.714844 159.511719 156.792969 C 159.546875 156.847656 159.578125 156.90625 159.605469 156.96875 Z M 159.90625 157.039062 C 159.945312 157.097656 159.980469 157.160156 160.015625 157.21875 C 159.910156 157.136719 159.789062 157.0625 159.652344 156.992188 C 159.625 156.933594 159.597656 156.875 159.570312 156.820312 C 159.695312 156.886719 159.808594 156.960938 159.90625 157.039062 Z M 160.082031 157.273438 C 160.0625 157.234375 160.042969 157.199219 160.019531 157.160156 C 160.066406 157.21875 160.109375 157.277344 160.152344 157.335938 C 160.128906 157.316406 160.105469 157.292969 160.082031 157.273438 Z M 160.40625 158.351562 C 160.378906 158.324219 160.351562 158.296875 160.320312 158.269531 C 160.316406 158.058594 160.289062 157.855469 160.230469 157.660156 C 160.339844 157.761719 160.425781 157.871094 160.488281 157.984375 C 160.519531 158.066406 160.542969 158.144531 160.566406 158.226562 C 160.582031 158.34375 160.589844 158.464844 160.59375 158.582031 C 160.542969 158.503906 160.480469 158.425781 160.40625 158.351562 Z M 160.300781 159.070312 C 160.277344 159.046875 160.253906 159.027344 160.230469 159.003906 C 160.234375 158.984375 160.238281 158.96875 160.242188 158.949219 C 160.292969 158.742188 160.316406 158.539062 160.320312 158.339844 C 160.335938 158.355469 160.355469 158.371094 160.371094 158.386719 C 160.464844 158.480469 160.539062 158.582031 160.589844 158.683594 C 160.582031 158.894531 160.550781 159.105469 160.496094 159.316406 C 160.445312 159.230469 160.378906 159.148438 160.300781 159.070312 Z M 160.367188 159.683594 C 160.320312 159.605469 160.261719 159.527344 160.1875 159.453125 C 160.160156 159.429688 160.136719 159.40625 160.109375 159.378906 C 160.152344 159.269531 160.1875 159.15625 160.21875 159.039062 C 160.238281 159.058594 160.257812 159.074219 160.277344 159.09375 C 160.363281 159.179688 160.433594 159.269531 160.480469 159.363281 C 160.449219 159.46875 160.414062 159.578125 160.367188 159.683594 Z M 160.578125 159.800781 C 160.550781 159.878906 160.519531 159.953125 160.484375 160.023438 C 160.472656 159.921875 160.441406 159.820312 160.390625 159.71875 C 160.433594 159.617188 160.472656 159.511719 160.503906 159.40625 C 160.554688 159.515625 160.582031 159.628906 160.582031 159.742188 C 160.582031 159.761719 160.582031 159.78125 160.578125 159.800781 Z M 160.488281 160.09375 C 160.503906 160.066406 160.519531 160.035156 160.53125 160.003906 C 160.519531 160.046875 160.503906 160.089844 160.484375 160.136719 C 160.488281 160.121094 160.488281 160.109375 160.488281 160.09375 Z M 159.15625 161.53125 C 159.179688 161.480469 159.1875 161.429688 159.191406 161.378906 C 159.390625 161.273438 159.59375 161.140625 159.792969 160.976562 C 159.785156 161.058594 159.757812 161.144531 159.710938 161.226562 C 159.539062 161.351562 159.351562 161.453125 159.15625 161.53125 Z M 158.859375 161.851562 C 158.859375 161.851562 158.855469 161.855469 158.851562 161.855469 C 158.898438 161.828125 158.9375 161.796875 158.976562 161.765625 C 159.039062 161.746094 159.101562 161.722656 159.160156 161.699219 C 159.0625 161.757812 158.964844 161.808594 158.859375 161.851562 Z M 156.277344 161.765625 C 156.3125 161.796875 156.351562 161.824219 156.394531 161.851562 C 156.394531 161.851562 156.394531 161.851562 156.390625 161.851562 C 156.289062 161.808594 156.191406 161.753906 156.09375 161.699219 C 156.152344 161.722656 156.214844 161.746094 156.277344 161.765625 Z M 155.464844 160.976562 C 155.660156 161.140625 155.867188 161.273438 156.066406 161.378906 C 156.066406 161.429688 156.078125 161.480469 156.097656 161.53125 C 155.902344 161.453125 155.714844 161.351562 155.542969 161.226562 C 155.496094 161.144531 155.46875 161.058594 155.464844 160.976562 Z M 154.765625 160.09375 C 154.765625 160.109375 154.769531 160.121094 154.769531 160.132812 C 154.75 160.089844 154.734375 160.042969 154.722656 160 C 154.734375 160.03125 154.75 160.0625 154.765625 160.09375 Z M 155.144531 159.378906 C 155.117188 159.40625 155.09375 159.429688 155.066406 159.453125 C 154.992188 159.527344 154.933594 159.605469 154.886719 159.683594 C 154.839844 159.574219 154.800781 159.460938 154.769531 159.351562 C 154.832031 159.238281 154.921875 159.132812 155.035156 159.035156 C 155.0625 159.148438 155.101562 159.265625 155.144531 159.378906 Z M 155.515625 158.714844 C 155.539062 158.835938 155.570312 158.957031 155.601562 159.082031 C 155.441406 159.164062 155.296875 159.253906 155.175781 159.355469 C 155.128906 159.242188 155.09375 159.125 155.0625 159.007812 C 155.1875 158.902344 155.339844 158.804688 155.515625 158.714844 Z M 155.496094 157.34375 C 155.460938 157.507812 155.441406 157.683594 155.4375 157.871094 C 155.433594 157.894531 155.4375 157.921875 155.4375 157.945312 C 155.257812 158.03125 155.101562 158.132812 154.96875 158.242188 C 154.976562 158.027344 155.007812 157.820312 155.070312 157.621094 C 155.191406 157.519531 155.332031 157.425781 155.496094 157.34375 Z M 155.507812 157.296875 C 155.347656 157.378906 155.207031 157.464844 155.089844 157.5625 C 155.121094 157.46875 155.15625 157.382812 155.203125 157.292969 C 155.308594 157.203125 155.441406 157.117188 155.585938 157.039062 C 155.554688 157.121094 155.527344 157.207031 155.507812 157.296875 Z M 156.109375 157.0625 C 155.984375 157.097656 155.867188 157.140625 155.753906 157.1875 C 155.683594 157.214844 155.613281 157.246094 155.546875 157.277344 C 155.570312 157.1875 155.597656 157.097656 155.632812 157.015625 C 155.792969 156.933594 155.976562 156.863281 156.175781 156.804688 C 156.148438 156.882812 156.128906 156.972656 156.109375 157.0625 Z M 156.871094 156.65625 C 156.855469 156.738281 156.84375 156.820312 156.835938 156.910156 C 156.59375 156.941406 156.363281 156.992188 156.148438 157.050781 C 156.164062 156.960938 156.1875 156.871094 156.214844 156.792969 C 156.417969 156.734375 156.636719 156.6875 156.871094 156.65625 Z M 156.910156 156.453125 C 156.898438 156.507812 156.886719 156.5625 156.875 156.621094 C 156.648438 156.652344 156.433594 156.695312 156.226562 156.753906 C 156.25 156.691406 156.273438 156.636719 156.300781 156.582031 C 156.492188 156.527344 156.695312 156.484375 156.910156 156.453125 Z M 157.609375 156.371094 C 157.386719 156.375 157.164062 156.386719 156.953125 156.414062 C 156.988281 156.300781 157.03125 156.203125 157.082031 156.132812 C 157.253906 156.109375 157.429688 156.097656 157.609375 156.097656 Z M 158.300781 156.414062 C 158.089844 156.386719 157.867188 156.375 157.644531 156.371094 L 157.644531 156.097656 C 157.824219 156.097656 158.003906 156.109375 158.171875 156.128906 C 158.222656 156.203125 158.265625 156.300781 158.300781 156.414062 Z M 158.378906 156.621094 C 158.371094 156.5625 158.359375 156.507812 158.34375 156.453125 C 158.558594 156.484375 158.761719 156.527344 158.953125 156.582031 C 158.980469 156.632812 159.003906 156.691406 159.027344 156.753906 C 158.824219 156.695312 158.605469 156.652344 158.378906 156.621094 Z M 159.109375 157.050781 C 158.894531 156.988281 158.660156 156.941406 158.417969 156.910156 C 158.410156 156.820312 158.398438 156.734375 158.386719 156.65625 C 158.617188 156.6875 158.835938 156.734375 159.039062 156.792969 C 159.066406 156.871094 159.089844 156.957031 159.109375 157.050781 Z M 159.707031 157.277344 C 159.539062 157.195312 159.347656 157.121094 159.144531 157.0625 C 159.128906 156.96875 159.105469 156.882812 159.078125 156.804688 C 159.277344 156.863281 159.460938 156.933594 159.625 157.015625 C 159.65625 157.097656 159.683594 157.183594 159.707031 157.277344 Z M 159.75 157.296875 C 159.726562 157.203125 159.699219 157.117188 159.667969 157.039062 C 159.816406 157.113281 159.945312 157.199219 160.054688 157.292969 C 160.097656 157.378906 160.132812 157.46875 160.164062 157.558594 C 160.046875 157.460938 159.90625 157.375 159.75 157.296875 Z M 159.820312 157.945312 C 159.820312 157.921875 159.820312 157.894531 159.820312 157.871094 C 159.816406 157.679688 159.792969 157.503906 159.757812 157.335938 C 159.921875 157.421875 160.0625 157.515625 160.183594 157.617188 C 160.246094 157.816406 160.28125 158.023438 160.285156 158.242188 C 160.152344 158.132812 159.996094 158.03125 159.820312 157.945312 Z M 159.652344 159.082031 C 159.6875 158.960938 159.714844 158.839844 159.738281 158.71875 C 159.914062 158.808594 160.066406 158.90625 160.191406 159.015625 C 160.160156 159.128906 160.125 159.242188 160.082031 159.355469 C 159.960938 159.253906 159.816406 159.164062 159.652344 159.082031 Z M 159.933594 159.691406 C 159.820312 159.597656 159.6875 159.511719 159.535156 159.4375 C 159.574219 159.328125 159.609375 159.222656 159.640625 159.113281 C 159.804688 159.195312 159.949219 159.289062 160.066406 159.390625 C 160.027344 159.492188 159.984375 159.59375 159.933594 159.691406 Z M 160.207031 160.007812 C 160.164062 159.929688 160.105469 159.855469 160.035156 159.785156 C 160.011719 159.761719 159.984375 159.738281 159.960938 159.714844 C 160.011719 159.617188 160.054688 159.515625 160.09375 159.414062 C 160.117188 159.433594 160.140625 159.457031 160.164062 159.476562 C 160.242188 159.558594 160.304688 159.636719 160.351562 159.722656 C 160.308594 159.816406 160.261719 159.914062 160.207031 160.007812 Z M 158.449219 161.613281 C 158.445312 161.589844 158.4375 161.5625 158.425781 161.539062 C 158.671875 161.441406 158.902344 161.328125 159.113281 161.191406 C 159.140625 161.246094 159.15625 161.300781 159.15625 161.359375 C 158.890625 161.496094 158.640625 161.578125 158.449219 161.613281 Z M 158.433594 161.714844 C 158.441406 161.691406 158.449219 161.671875 158.449219 161.648438 C 158.640625 161.609375 158.890625 161.53125 159.15625 161.394531 C 159.152344 161.445312 159.136719 161.496094 159.113281 161.546875 C 158.878906 161.632812 158.644531 161.6875 158.433594 161.714844 Z M 158.261719 161.90625 C 158.292969 161.886719 158.320312 161.867188 158.34375 161.847656 C 158.519531 161.859375 158.707031 161.835938 158.894531 161.789062 C 158.84375 161.824219 158.785156 161.859375 158.722656 161.890625 C 158.578125 161.925781 158.460938 161.929688 158.261719 161.90625 Z M 157.214844 162.003906 C 157.339844 162.039062 157.480469 162.058594 157.628906 162.058594 C 157.699219 162.058594 157.769531 162.054688 157.835938 162.046875 C 157.859375 162.066406 157.882812 162.085938 157.90625 162.097656 C 157.816406 162.105469 157.722656 162.113281 157.628906 162.113281 C 157.421875 162.113281 157.214844 162.089844 157.019531 162.050781 C 157.085938 162.046875 157.152344 162.03125 157.214844 162.003906 Z M 156.914062 161.847656 C 156.9375 161.867188 156.960938 161.886719 156.992188 161.90625 C 156.792969 161.929688 156.675781 161.925781 156.53125 161.890625 C 156.46875 161.859375 156.410156 161.824219 156.359375 161.789062 C 156.546875 161.835938 156.738281 161.859375 156.914062 161.847656 Z M 156.804688 161.648438 C 156.808594 161.671875 156.8125 161.691406 156.820312 161.714844 C 156.609375 161.6875 156.375 161.632812 156.140625 161.546875 C 156.117188 161.496094 156.101562 161.445312 156.097656 161.394531 C 156.363281 161.53125 156.613281 161.609375 156.804688 161.648438 Z M 156.140625 161.191406 C 156.351562 161.328125 156.582031 161.441406 156.828125 161.539062 C 156.816406 161.5625 156.808594 161.585938 156.804688 161.613281 C 156.613281 161.574219 156.363281 161.492188 156.097656 161.359375 C 156.097656 161.300781 156.113281 161.246094 156.140625 161.191406 Z M 155.027344 160.039062 C 154.976562 160.132812 154.949219 160.230469 154.941406 160.328125 C 154.890625 160.25 154.84375 160.171875 154.800781 160.085938 C 154.800781 159.972656 154.832031 159.863281 154.882812 159.761719 C 154.925781 159.855469 154.972656 159.949219 155.027344 160.039062 Z M 155.292969 159.714844 C 155.269531 159.738281 155.242188 159.761719 155.21875 159.785156 C 155.148438 159.855469 155.089844 159.929688 155.046875 160.007812 C 154.992188 159.914062 154.945312 159.816406 154.902344 159.722656 C 154.964844 159.613281 155.050781 159.511719 155.160156 159.414062 C 155.199219 159.515625 155.246094 159.617188 155.292969 159.714844 Z M 155.71875 159.4375 C 155.566406 159.511719 155.433594 159.597656 155.320312 159.691406 C 155.269531 159.59375 155.226562 159.492188 155.1875 159.390625 C 155.304688 159.289062 155.449219 159.199219 155.613281 159.113281 C 155.644531 159.222656 155.679688 159.328125 155.71875 159.4375 Z M 156.203125 158.886719 C 156.226562 158.996094 156.25 159.109375 156.28125 159.21875 C 156.085938 159.273438 155.910156 159.34375 155.75 159.421875 C 155.710938 159.3125 155.675781 159.207031 155.644531 159.101562 C 155.8125 159.019531 156 158.949219 156.203125 158.886719 Z M 156.125 158.480469 C 156.144531 158.601562 156.167969 158.726562 156.195312 158.851562 C 155.992188 158.914062 155.804688 158.984375 155.632812 159.066406 C 155.597656 158.945312 155.570312 158.820312 155.546875 158.699219 C 155.71875 158.613281 155.914062 158.539062 156.125 158.480469 Z M 156.058594 157.757812 C 156.066406 157.972656 156.085938 158.203125 156.121094 158.445312 C 155.910156 158.503906 155.714844 158.578125 155.539062 158.664062 C 155.496094 158.433594 155.472656 158.203125 155.46875 157.984375 C 155.644531 157.898438 155.84375 157.820312 156.058594 157.757812 Z M 156.070312 157.347656 C 156.0625 157.460938 156.058594 157.582031 156.058594 157.703125 C 155.847656 157.765625 155.648438 157.839844 155.46875 157.925781 C 155.46875 157.910156 155.46875 157.890625 155.46875 157.875 C 155.472656 157.675781 155.496094 157.492188 155.535156 157.324219 C 155.707031 157.238281 155.898438 157.164062 156.101562 157.101562 C 156.089844 157.179688 156.078125 157.261719 156.070312 157.347656 Z M 156.8125 157.546875 C 156.558594 157.582031 156.316406 157.628906 156.09375 157.695312 C 156.089844 157.578125 156.097656 157.460938 156.105469 157.351562 C 156.113281 157.261719 156.125 157.175781 156.140625 157.09375 C 156.355469 157.027344 156.589844 156.980469 156.832031 156.945312 C 156.816406 157.140625 156.808594 157.34375 156.8125 157.546875 Z M 157.609375 156.890625 L 157.609375 157.492188 C 157.34375 157.492188 157.085938 157.511719 156.839844 157.542969 C 156.839844 157.328125 156.847656 157.125 156.863281 156.941406 C 157.101562 156.910156 157.355469 156.890625 157.609375 156.890625 Z M 157.609375 156.605469 L 157.609375 156.855469 C 157.359375 156.855469 157.109375 156.875 156.867188 156.90625 C 156.875 156.816406 156.886719 156.730469 156.902344 156.652344 C 157.128906 156.621094 157.367188 156.605469 157.609375 156.605469 Z M 157.609375 156.570312 C 157.371094 156.570312 157.132812 156.585938 156.90625 156.617188 C 156.917969 156.558594 156.929688 156.503906 156.945312 156.449219 C 157.160156 156.421875 157.382812 156.40625 157.609375 156.40625 Z M 157.644531 156.570312 L 157.644531 156.40625 C 157.871094 156.40625 158.097656 156.421875 158.308594 156.449219 C 158.324219 156.5 158.335938 156.558594 158.347656 156.617188 C 158.121094 156.585938 157.882812 156.570312 157.644531 156.570312 Z M 157.644531 156.855469 L 157.644531 156.605469 C 157.890625 156.605469 158.125 156.621094 158.355469 156.652344 C 158.367188 156.730469 158.378906 156.816406 158.386719 156.90625 C 158.148438 156.875 157.898438 156.855469 157.644531 156.855469 Z M 158.417969 157.542969 C 158.167969 157.511719 157.910156 157.492188 157.644531 157.492188 L 157.644531 156.890625 C 157.902344 156.890625 158.152344 156.90625 158.390625 156.9375 C 158.410156 157.125 158.417969 157.328125 158.417969 157.542969 Z M 159.148438 157.351562 C 159.160156 157.460938 159.164062 157.578125 159.164062 157.695312 C 158.9375 157.628906 158.695312 157.582031 158.445312 157.546875 C 158.445312 157.34375 158.4375 157.136719 158.421875 156.941406 C 158.667969 156.976562 158.898438 157.027344 159.113281 157.085938 C 159.128906 157.171875 159.140625 157.257812 159.148438 157.351562 Z M 159.195312 157.703125 C 159.195312 157.582031 159.191406 157.460938 159.183594 157.347656 C 159.175781 157.261719 159.164062 157.179688 159.152344 157.097656 C 159.359375 157.160156 159.546875 157.234375 159.71875 157.316406 C 159.757812 157.488281 159.78125 157.675781 159.785156 157.875 C 159.785156 157.890625 159.785156 157.910156 159.785156 157.925781 C 159.605469 157.839844 159.410156 157.765625 159.195312 157.703125 Z M 159.132812 158.445312 C 159.171875 158.207031 159.191406 157.972656 159.195312 157.753906 C 159.410156 157.820312 159.609375 157.894531 159.785156 157.984375 C 159.785156 158.203125 159.757812 158.433594 159.714844 158.667969 C 159.539062 158.582031 159.34375 158.507812 159.132812 158.445312 Z M 159.0625 158.855469 C 159.085938 158.726562 159.109375 158.605469 159.128906 158.484375 C 159.15625 158.488281 159.179688 158.496094 159.207031 158.503906 C 159.386719 158.5625 159.554688 158.628906 159.707031 158.703125 C 159.683594 158.824219 159.65625 158.945312 159.621094 159.066406 C 159.453125 158.984375 159.265625 158.914062 159.0625 158.855469 Z M 158.972656 159.21875 C 159.003906 159.109375 159.03125 158.996094 159.054688 158.886719 C 159.257812 158.945312 159.445312 159.015625 159.613281 159.097656 C 159.578125 159.207031 159.542969 159.3125 159.503906 159.421875 C 159.34375 159.34375 159.167969 159.273438 158.972656 159.21875 Z M 159.390625 159.703125 C 159.320312 159.859375 159.246094 160.007812 159.164062 160.152344 C 159.035156 160.085938 158.890625 160.03125 158.734375 159.988281 C 158.78125 159.863281 158.824219 159.734375 158.867188 159.601562 C 158.902344 159.484375 158.933594 159.367188 158.964844 159.253906 C 159.15625 159.308594 159.335938 159.375 159.492188 159.453125 C 159.460938 159.539062 159.425781 159.621094 159.390625 159.703125 Z M 159.507812 160.371094 C 159.417969 160.292969 159.3125 160.226562 159.195312 160.164062 C 159.277344 160.023438 159.351562 159.871094 159.421875 159.71875 C 159.457031 159.636719 159.492188 159.550781 159.523438 159.46875 C 159.675781 159.542969 159.804688 159.628906 159.917969 159.722656 C 159.804688 159.945312 159.667969 160.164062 159.507812 160.371094 Z M 159.59375 160.445312 C 159.574219 160.425781 159.554688 160.410156 159.535156 160.390625 C 159.695312 160.183594 159.832031 159.96875 159.945312 159.746094 C 159.96875 159.765625 159.988281 159.785156 160.007812 159.808594 C 160.085938 159.882812 160.144531 159.960938 160.1875 160.039062 C 160.175781 160.0625 160.164062 160.082031 160.152344 160.101562 C 160.035156 160.292969 159.894531 160.472656 159.742188 160.636719 C 159.703125 160.570312 159.65625 160.507812 159.59375 160.445312 Z M 159.023438 161.011719 C 159.011719 161.003906 159 160.992188 158.988281 160.980469 C 159.171875 160.816406 159.347656 160.628906 159.507812 160.425781 C 159.511719 160.425781 159.511719 160.421875 159.515625 160.417969 C 159.535156 160.433594 159.550781 160.453125 159.570312 160.46875 C 159.632812 160.53125 159.679688 160.59375 159.714844 160.660156 C 159.542969 160.839844 159.34375 161.003906 159.125 161.144531 C 159.101562 161.097656 159.066406 161.054688 159.023438 161.011719 Z M 158.359375 161.441406 C 158.355469 161.4375 158.355469 161.4375 158.351562 161.433594 C 158.558594 161.320312 158.765625 161.175781 158.960938 161.003906 C 158.976562 161.015625 158.988281 161.027344 159 161.039062 C 159.042969 161.078125 159.074219 161.121094 159.097656 161.164062 C 158.886719 161.296875 158.65625 161.414062 158.410156 161.507812 C 158.398438 161.484375 158.378906 161.460938 158.359375 161.441406 Z M 156.292969 161 C 156.488281 161.171875 156.695312 161.320312 156.902344 161.433594 C 156.902344 161.4375 156.898438 161.4375 156.894531 161.441406 C 156.875 161.460938 156.855469 161.484375 156.84375 161.507812 C 156.597656 161.414062 156.367188 161.296875 156.15625 161.164062 C 156.1875 161.105469 156.234375 161.050781 156.292969 161 Z M 155.738281 160.417969 C 155.742188 160.421875 155.746094 160.425781 155.746094 160.425781 C 155.90625 160.628906 156.082031 160.816406 156.265625 160.980469 C 156.253906 160.992188 156.242188 161.003906 156.230469 161.011719 C 156.1875 161.054688 156.152344 161.097656 156.128906 161.144531 C 155.910156 161.003906 155.714844 160.839844 155.539062 160.660156 C 155.585938 160.574219 155.652344 160.492188 155.738281 160.417969 Z M 155.71875 160.390625 C 155.699219 160.410156 155.679688 160.425781 155.660156 160.445312 C 155.597656 160.507812 155.550781 160.570312 155.515625 160.632812 C 155.359375 160.472656 155.21875 160.292969 155.101562 160.101562 C 155.089844 160.082031 155.078125 160.0625 155.066406 160.039062 C 155.125 159.9375 155.207031 159.839844 155.308594 159.746094 C 155.425781 159.96875 155.5625 160.183594 155.71875 160.390625 Z M 155.832031 159.71875 C 155.902344 159.871094 155.976562 160.023438 156.058594 160.164062 C 155.941406 160.226562 155.835938 160.292969 155.746094 160.367188 C 155.585938 160.164062 155.449219 159.945312 155.335938 159.722656 C 155.449219 159.628906 155.578125 159.546875 155.730469 159.46875 C 155.761719 159.554688 155.796875 159.636719 155.832031 159.71875 Z M 156.390625 159.601562 C 156.429688 159.734375 156.476562 159.863281 156.519531 159.988281 C 156.363281 160.03125 156.21875 160.085938 156.089844 160.152344 C 156.007812 160.007812 155.933594 159.859375 155.863281 159.703125 C 155.828125 159.621094 155.792969 159.539062 155.761719 159.453125 C 155.921875 159.375 156.097656 159.308594 156.289062 159.253906 C 156.320312 159.367188 156.351562 159.484375 156.390625 159.601562 Z M 156.925781 159.121094 C 156.960938 159.382812 157 159.636719 157.042969 159.878906 C 156.871094 159.902344 156.710938 159.933594 156.558594 159.976562 C 156.472656 159.746094 156.390625 159.496094 156.324219 159.242188 C 156.511719 159.191406 156.714844 159.148438 156.925781 159.121094 Z M 156.882812 158.746094 C 156.894531 158.859375 156.90625 158.972656 156.921875 159.085938 C 156.707031 159.117188 156.503906 159.15625 156.316406 159.210938 C 156.285156 159.101562 156.261719 158.988281 156.234375 158.878906 C 156.4375 158.824219 156.652344 158.777344 156.882812 158.746094 Z M 156.84375 158.328125 C 156.847656 158.40625 156.855469 158.480469 156.863281 158.542969 C 156.867188 158.601562 156.871094 158.65625 156.878906 158.710938 C 156.648438 158.742188 156.433594 158.789062 156.226562 158.84375 C 156.203125 158.71875 156.179688 158.59375 156.160156 158.46875 C 156.371094 158.410156 156.601562 158.363281 156.84375 158.328125 Z M 156.839844 158.296875 C 156.601562 158.328125 156.371094 158.375 156.15625 158.433594 C 156.117188 158.199219 156.097656 157.96875 156.09375 157.746094 C 156.316406 157.683594 156.558594 157.632812 156.8125 157.597656 C 156.8125 157.847656 156.828125 158.09375 156.839844 158.296875 Z M 157.609375 158.242188 C 157.355469 158.242188 157.105469 158.261719 156.867188 158.292969 C 156.851562 158.050781 156.839844 157.816406 156.839844 157.59375 C 157.085938 157.5625 157.34375 157.542969 157.609375 157.542969 Z M 158.386719 158.292969 C 158.148438 158.261719 157.898438 158.246094 157.644531 158.242188 L 157.644531 157.542969 C 157.910156 157.542969 158.167969 157.5625 158.417969 157.59375 C 158.414062 157.816406 158.402344 158.050781 158.386719 158.292969 Z M 158.414062 158.296875 C 158.429688 158.09375 158.441406 157.847656 158.445312 157.597656 C 158.695312 157.632812 158.9375 157.679688 159.160156 157.746094 C 159.15625 157.96875 159.136719 158.203125 159.101562 158.4375 C 158.886719 158.375 158.65625 158.328125 158.414062 158.296875 Z M 158.378906 158.710938 C 158.382812 158.65625 158.386719 158.601562 158.394531 158.542969 C 158.398438 158.480469 158.40625 158.410156 158.410156 158.332031 C 158.648438 158.363281 158.878906 158.410156 159.09375 158.472656 C 159.074219 158.597656 159.054688 158.71875 159.027344 158.84375 C 158.824219 158.789062 158.605469 158.742188 158.378906 158.710938 Z M 158.332031 159.085938 C 158.347656 158.972656 158.363281 158.859375 158.375 158.746094 C 158.601562 158.777344 158.816406 158.820312 159.019531 158.875 C 158.996094 158.988281 158.96875 159.101562 158.941406 159.210938 C 158.75 159.15625 158.546875 159.117188 158.332031 159.085938 Z M 158.210938 159.878906 C 158.253906 159.636719 158.296875 159.382812 158.328125 159.121094 C 158.539062 159.148438 158.742188 159.191406 158.929688 159.242188 C 158.863281 159.496094 158.785156 159.746094 158.699219 159.976562 C 158.546875 159.933594 158.382812 159.902344 158.210938 159.878906 Z M 158.394531 160.679688 C 158.285156 160.652344 158.171875 160.628906 158.050781 160.609375 C 158.105469 160.40625 158.15625 160.167969 158.207031 159.910156 C 158.375 159.933594 158.535156 159.964844 158.6875 160.007812 C 158.59375 160.253906 158.496094 160.484375 158.394531 160.679688 Z M 158.714844 160.800781 C 158.628906 160.757812 158.53125 160.722656 158.429688 160.691406 C 158.53125 160.492188 158.628906 160.261719 158.722656 160.019531 C 158.875 160.0625 159.019531 160.117188 159.148438 160.179688 C 159.019531 160.402344 158.875 160.609375 158.714844 160.800781 Z M 158.746094 160.816406 C 158.902344 160.625 159.050781 160.417969 159.179688 160.195312 C 159.296875 160.253906 159.398438 160.324219 159.488281 160.394531 C 159.484375 160.398438 159.484375 160.402344 159.480469 160.40625 C 159.324219 160.609375 159.148438 160.792969 158.960938 160.957031 C 158.898438 160.90625 158.828125 160.859375 158.746094 160.816406 Z M 158.414062 160.722656 C 158.515625 160.753906 158.609375 160.789062 158.691406 160.828125 C 158.539062 161.011719 158.371094 161.179688 158.191406 161.328125 C 158.152344 161.308594 158.105469 161.289062 158.058594 161.277344 C 158.175781 161.140625 158.296875 160.949219 158.414062 160.722656 Z M 158.042969 160.644531 C 158.160156 160.660156 158.273438 160.683594 158.378906 160.710938 C 158.257812 160.945312 158.136719 161.132812 158.023438 161.265625 C 157.964844 161.25 157.902344 161.234375 157.835938 161.226562 C 157.902344 161.097656 157.972656 160.894531 158.042969 160.644531 Z M 157.644531 160.617188 C 157.769531 160.617188 157.894531 160.625 158.011719 160.640625 C 157.941406 160.890625 157.871094 161.09375 157.800781 161.222656 C 157.75 161.21875 157.695312 161.214844 157.644531 161.214844 Z M 157.453125 161.222656 C 157.382812 161.09375 157.3125 160.890625 157.246094 160.640625 C 157.359375 160.625 157.484375 160.617188 157.609375 160.617188 L 157.609375 161.214844 C 157.558594 161.214844 157.503906 161.21875 157.453125 161.222656 Z M 157.230469 161.265625 C 157.117188 161.132812 156.996094 160.945312 156.878906 160.710938 C 156.980469 160.683594 157.09375 160.660156 157.214844 160.644531 C 157.28125 160.894531 157.351562 161.097656 157.417969 161.226562 C 157.351562 161.234375 157.289062 161.25 157.230469 161.265625 Z M 157.0625 161.328125 C 156.882812 161.179688 156.71875 161.011719 156.5625 160.828125 C 156.648438 160.789062 156.742188 160.753906 156.839844 160.722656 C 156.960938 160.949219 157.078125 161.140625 157.195312 161.273438 C 157.148438 161.289062 157.101562 161.308594 157.0625 161.328125 Z M 156.507812 160.816406 C 156.429688 160.859375 156.355469 160.90625 156.292969 160.957031 C 156.109375 160.792969 155.933594 160.609375 155.773438 160.40625 C 155.769531 160.402344 155.769531 160.398438 155.765625 160.394531 C 155.855469 160.324219 155.957031 160.257812 156.078125 160.195312 C 156.207031 160.417969 156.351562 160.625 156.507812 160.816406 Z M 156.824219 160.691406 C 156.722656 160.722656 156.625 160.757812 156.539062 160.800781 C 156.382812 160.609375 156.238281 160.402344 156.109375 160.179688 C 156.234375 160.117188 156.378906 160.066406 156.53125 160.019531 C 156.625 160.261719 156.722656 160.492188 156.824219 160.691406 Z M 157.203125 160.609375 C 157.082031 160.628906 156.96875 160.652344 156.863281 160.679688 C 156.761719 160.484375 156.660156 160.253906 156.570312 160.007812 C 156.71875 159.96875 156.878906 159.933594 157.050781 159.910156 C 157.097656 160.167969 157.148438 160.40625 157.203125 160.609375 Z M 157.609375 159.871094 L 157.609375 160.582031 C 157.480469 160.582031 157.355469 160.589844 157.234375 160.605469 C 157.179688 160.402344 157.128906 160.164062 157.078125 159.90625 C 157.25 159.886719 157.425781 159.875 157.609375 159.871094 Z M 157.609375 159.074219 L 157.609375 159.839844 C 157.425781 159.839844 157.246094 159.851562 157.074219 159.875 C 157.027344 159.632812 156.988281 159.378906 156.953125 159.117188 C 157.164062 159.089844 157.382812 159.074219 157.609375 159.074219 Z M 157.609375 158.695312 L 157.609375 159.039062 C 157.382812 159.042969 157.160156 159.054688 156.949219 159.082031 C 156.933594 158.96875 156.921875 158.855469 156.910156 158.742188 C 157.132812 158.714844 157.367188 158.699219 157.609375 158.695312 Z M 157.609375 158.664062 C 157.367188 158.664062 157.132812 158.679688 156.90625 158.707031 C 156.890625 158.582031 156.878906 158.453125 156.871094 158.324219 C 157.105469 158.292969 157.355469 158.277344 157.609375 158.277344 Z M 157.644531 158.664062 L 157.644531 158.277344 C 157.894531 158.277344 158.144531 158.296875 158.382812 158.328125 C 158.375 158.453125 158.363281 158.582031 158.347656 158.707031 C 158.121094 158.679688 157.886719 158.664062 157.644531 158.664062 Z M 157.644531 159.039062 L 157.644531 158.695312 C 157.886719 158.699219 158.121094 158.710938 158.347656 158.742188 C 158.335938 158.855469 158.320312 158.96875 158.304688 159.082031 C 158.09375 159.054688 157.871094 159.042969 157.644531 159.039062 Z M 157.644531 159.839844 L 157.644531 159.074219 C 157.871094 159.074219 158.089844 159.089844 158.300781 159.117188 C 158.269531 159.378906 158.226562 159.632812 158.183594 159.875 C 158.007812 159.851562 157.828125 159.839844 157.644531 159.839844 Z M 157.644531 159.871094 C 157.828125 159.875 158.003906 159.882812 158.175781 159.90625 C 158.128906 160.164062 158.074219 160.402344 158.019531 160.605469 C 157.898438 160.589844 157.773438 160.582031 157.644531 160.582031 Z M 156.929688 161.410156 C 156.722656 161.296875 156.515625 161.152344 156.316406 160.980469 C 156.378906 160.929688 156.449219 160.886719 156.53125 160.84375 C 156.6875 161.027344 156.851562 161.195312 157.03125 161.34375 C 156.992188 161.363281 156.957031 161.386719 156.929688 161.410156 Z M 158.226562 161.34375 C 158.402344 161.195312 158.570312 161.027344 158.722656 160.84375 C 158.804688 160.886719 158.875 160.929688 158.9375 160.980469 C 158.738281 161.152344 158.53125 161.296875 158.324219 161.410156 C 158.296875 161.386719 158.261719 161.363281 158.226562 161.34375 Z M 157.980469 162.089844 C 157.945312 162.082031 157.914062 162.066406 157.882812 162.039062 C 157.9375 162.03125 157.988281 162.019531 158.039062 162.003906 C 158.105469 162.03125 158.167969 162.046875 158.234375 162.050781 C 158.152344 162.066406 158.066406 162.082031 157.980469 162.089844 Z M 158.324219 161.796875 C 158.195312 161.925781 157.921875 162.007812 157.628906 162.007812 C 157.332031 162.007812 157.0625 161.925781 156.933594 161.796875 C 156.882812 161.746094 156.855469 161.691406 156.855469 161.636719 C 156.855469 161.429688 157.203125 161.265625 157.628906 161.265625 C 157.921875 161.265625 158.195312 161.347656 158.324219 161.476562 C 158.375 161.527344 158.398438 161.582031 158.398438 161.636719 C 158.398438 161.691406 158.375 161.746094 158.324219 161.796875 Z M 154.972656 160.378906 C 154.972656 160.273438 155 160.171875 155.046875 160.074219 C 155.054688 160.089844 155.0625 160.105469 155.074219 160.117188 C 155.195312 160.316406 155.335938 160.5 155.496094 160.667969 C 155.457031 160.742188 155.4375 160.820312 155.429688 160.902344 C 155.265625 160.753906 155.109375 160.578125 154.972656 160.378906 Z M 155.460938 160.929688 C 155.464844 160.847656 155.484375 160.769531 155.523438 160.691406 C 155.699219 160.871094 155.894531 161.03125 156.113281 161.171875 C 156.085938 161.226562 156.070312 161.285156 156.066406 161.339844 C 155.867188 161.234375 155.660156 161.101562 155.460938 160.929688 Z M 156.253906 161.699219 C 156.21875 161.664062 156.191406 161.628906 156.167969 161.59375 C 156.398438 161.675781 156.628906 161.726562 156.835938 161.75 C 156.847656 161.773438 156.863281 161.792969 156.878906 161.8125 C 156.695312 161.824219 156.488281 161.792969 156.292969 161.734375 C 156.28125 161.722656 156.265625 161.710938 156.253906 161.699219 Z M 156.75 161.984375 C 156.71875 161.972656 156.6875 161.960938 156.65625 161.949219 C 156.761719 161.960938 156.875 161.953125 157.042969 161.933594 C 157.082031 161.953125 157.121094 161.972656 157.164062 161.984375 C 157.070312 162.015625 156.980469 162.027344 156.867188 162.015625 C 156.828125 162.007812 156.789062 161.996094 156.75 161.984375 Z M 158.503906 161.984375 C 158.464844 161.996094 158.425781 162.007812 158.386719 162.015625 C 158.273438 162.027344 158.183594 162.015625 158.09375 161.988281 C 158.136719 161.972656 158.175781 161.953125 158.214844 161.933594 C 158.378906 161.953125 158.492188 161.960938 158.597656 161.949219 C 158.566406 161.960938 158.535156 161.972656 158.503906 161.984375 Z M 158.960938 161.734375 C 158.765625 161.792969 158.5625 161.824219 158.375 161.8125 C 158.394531 161.792969 158.40625 161.773438 158.421875 161.75 C 158.625 161.726562 158.855469 161.675781 159.085938 161.59375 C 159.0625 161.628906 159.035156 161.664062 159 161.699219 C 158.988281 161.710938 158.972656 161.722656 158.960938 161.734375 Z M 159.1875 161.339844 C 159.183594 161.285156 159.171875 161.226562 159.144531 161.171875 C 159.359375 161.03125 159.554688 160.871094 159.734375 160.691406 C 159.769531 160.769531 159.789062 160.847656 159.792969 160.929688 C 159.59375 161.101562 159.390625 161.234375 159.1875 161.339844 Z M 159.824219 160.902344 C 159.816406 160.820312 159.796875 160.742188 159.757812 160.667969 C 159.917969 160.5 160.058594 160.316406 160.183594 160.117188 C 160.191406 160.105469 160.199219 160.089844 160.207031 160.074219 C 160.257812 160.171875 160.28125 160.273438 160.28125 160.378906 C 160.144531 160.578125 159.988281 160.753906 159.824219 160.902344 Z M 160.3125 160.328125 C 160.304688 160.230469 160.277344 160.132812 160.226562 160.039062 C 160.28125 159.949219 160.328125 159.855469 160.371094 159.761719 C 160.425781 159.867188 160.453125 159.976562 160.453125 160.085938 C 160.410156 160.171875 160.363281 160.253906 160.3125 160.328125 Z M 160.199219 158.976562 C 160.074219 158.871094 159.917969 158.769531 159.746094 158.683594 C 159.792969 158.453125 159.816406 158.222656 159.820312 158 C 160 158.089844 160.15625 158.195312 160.285156 158.308594 C 160.285156 158.515625 160.261719 158.726562 160.210938 158.941406 C 160.207031 158.953125 160.203125 158.964844 160.199219 158.976562 Z M 158.695312 156.234375 C 158.789062 156.316406 158.867188 156.417969 158.933594 156.539062 C 158.746094 156.488281 158.542969 156.449219 158.335938 156.417969 C 158.304688 156.308594 158.265625 156.210938 158.21875 156.136719 C 158.386719 156.160156 158.546875 156.191406 158.695312 156.234375 Z M 156.558594 156.238281 C 156.707031 156.195312 156.871094 156.160156 157.039062 156.136719 C 156.988281 156.214844 156.953125 156.308594 156.921875 156.417969 C 156.710938 156.449219 156.511719 156.488281 156.324219 156.539062 C 156.386719 156.421875 156.464844 156.320312 156.558594 156.238281 Z M 155.046875 158.941406 C 154.992188 158.726562 154.96875 158.515625 154.96875 158.308594 C 155.097656 158.195312 155.253906 158.09375 155.4375 158 C 155.4375 158.21875 155.464844 158.449219 155.507812 158.679688 C 155.335938 158.765625 155.179688 158.863281 155.054688 158.972656 C 155.050781 158.960938 155.046875 158.953125 155.046875 158.941406 Z M 154.664062 159.742188 C 154.664062 159.621094 154.691406 159.507812 154.746094 159.394531 C 154.78125 159.503906 154.820312 159.613281 154.867188 159.71875 C 154.8125 159.816406 154.78125 159.921875 154.769531 160.023438 C 154.730469 159.941406 154.695312 159.859375 154.664062 159.769531 C 154.664062 159.761719 154.664062 159.75 154.664062 159.742188 Z M 154.824219 160.269531 C 154.816406 160.234375 154.808594 160.203125 154.804688 160.167969 C 154.847656 160.242188 154.890625 160.316406 154.9375 160.386719 C 154.9375 160.4375 154.941406 160.488281 154.953125 160.535156 C 154.90625 160.449219 154.863281 160.359375 154.824219 160.269531 Z M 155.171875 160.871094 C 155.171875 160.867188 155.167969 160.867188 155.164062 160.867188 C 155.121094 160.804688 155.078125 160.738281 155.035156 160.675781 C 155 160.597656 154.980469 160.519531 154.972656 160.4375 C 155.109375 160.632812 155.265625 160.800781 155.429688 160.945312 C 155.429688 161.023438 155.445312 161.101562 155.480469 161.175781 C 155.367188 161.085938 155.261719 160.984375 155.171875 160.871094 Z M 155.703125 161.429688 C 155.660156 161.390625 155.621094 161.34375 155.589844 161.300781 C 155.753906 161.414062 155.9375 161.503906 156.117188 161.574219 C 156.144531 161.621094 156.175781 161.667969 156.21875 161.710938 C 156.078125 161.664062 155.945312 161.601562 155.824219 161.523438 C 155.785156 161.496094 155.746094 161.464844 155.703125 161.429688 Z M 159.550781 161.429688 C 159.507812 161.464844 159.46875 161.496094 159.425781 161.527344 C 159.304688 161.601562 159.171875 161.664062 159.035156 161.710938 C 159.074219 161.667969 159.109375 161.621094 159.136719 161.574219 C 159.316406 161.503906 159.496094 161.414062 159.664062 161.300781 C 159.632812 161.34375 159.59375 161.390625 159.550781 161.429688 Z M 160.089844 160.867188 C 160.085938 160.867188 160.085938 160.867188 160.082031 160.871094 C 159.992188 160.984375 159.886719 161.085938 159.773438 161.179688 C 159.808594 161.101562 159.824219 161.023438 159.824219 160.945312 C 159.988281 160.800781 160.144531 160.632812 160.28125 160.4375 C 160.273438 160.519531 160.253906 160.597656 160.21875 160.675781 C 160.175781 160.738281 160.136719 160.804688 160.089844 160.867188 Z M 160.300781 160.535156 C 160.3125 160.488281 160.316406 160.4375 160.316406 160.386719 C 160.363281 160.316406 160.40625 160.246094 160.449219 160.167969 C 160.445312 160.203125 160.441406 160.238281 160.429688 160.269531 C 160.390625 160.359375 160.347656 160.449219 160.300781 160.535156 Z M 160.414062 157.808594 C 160.359375 157.734375 160.289062 157.664062 160.214844 157.597656 C 160.1875 157.515625 160.15625 157.433594 160.117188 157.351562 C 160.175781 157.40625 160.222656 157.460938 160.265625 157.519531 C 160.320312 157.613281 160.371094 157.710938 160.414062 157.808594 Z M 159.480469 156.738281 C 159.328125 156.667969 159.15625 156.605469 158.976562 156.550781 C 158.917969 156.4375 158.847656 156.339844 158.765625 156.253906 C 158.886719 156.292969 159 156.335938 159.105469 156.386719 C 159.148438 156.40625 159.1875 156.429688 159.226562 156.457031 C 159.324219 156.535156 159.40625 156.628906 159.480469 156.738281 Z M 158.089844 156.039062 C 158.109375 156.054688 158.128906 156.070312 158.144531 156.09375 C 157.984375 156.074219 157.816406 156.0625 157.644531 156.0625 L 157.644531 156.003906 C 157.792969 156.003906 157.941406 156.015625 158.089844 156.039062 Z M 157.609375 156.003906 L 157.609375 156.0625 C 157.441406 156.0625 157.273438 156.074219 157.109375 156.09375 C 157.128906 156.074219 157.144531 156.054688 157.164062 156.039062 C 157.3125 156.015625 157.460938 156.003906 157.609375 156.003906 Z M 154.992188 157.519531 C 155.03125 157.460938 155.082031 157.40625 155.136719 157.355469 C 155.097656 157.433594 155.066406 157.519531 155.039062 157.601562 C 154.960938 157.671875 154.894531 157.742188 154.835938 157.816406 C 154.882812 157.714844 154.933594 157.613281 154.992188 157.519531 Z M 154.574219 159 C 154.578125 158.914062 154.597656 158.832031 154.632812 158.75 C 154.644531 158.949219 154.679688 159.148438 154.734375 159.347656 C 154.675781 159.449219 154.644531 159.558594 154.632812 159.667969 C 154.59375 159.46875 154.574219 159.265625 154.574219 159.058594 C 154.574219 159.039062 154.574219 159.019531 154.574219 159 Z M 154.519531 159.050781 C 154.519531 159.054688 154.523438 159.054688 154.523438 159.058594 C 154.523438 159.886719 154.84375 160.667969 155.433594 161.253906 C 156.019531 161.839844 156.796875 162.164062 157.628906 162.164062 C 159.339844 162.164062 160.730469 160.769531 160.730469 159.0625 C 160.734375 159.058594 160.734375 159.054688 160.734375 159.050781 C 160.734375 159.023438 160.734375 158.996094 160.730469 158.96875 C 160.707031 158.171875 160.386719 157.429688 159.824219 156.863281 C 159.234375 156.277344 158.457031 155.953125 157.628906 155.953125 C 156.796875 155.953125 156.019531 156.277344 155.433594 156.863281 C 154.863281 157.433594 154.542969 158.183594 154.523438 158.984375 C 154.523438 159.007812 154.519531 159.027344 154.519531 159.050781 " fill-opacity="1" fill-rule="nonzero"/></g><g clip-path="url(#9ad9ea1da8)"><path fill="#000000" d="M 160.914062 159.664062 C 160.867188 159.667969 160.835938 159.699219 160.847656 159.734375 C 160.855469 159.769531 160.902344 159.792969 160.949219 159.789062 C 161.277344 159.761719 161.542969 159.710938 161.726562 159.640625 C 161.917969 159.566406 162.023438 159.464844 162.023438 159.339844 C 162.023438 159.082031 161.53125 158.78125 160.730469 158.503906 C 159.957031 158.234375 158.894531 157.984375 157.71875 157.808594 C 157.125 157.722656 156.5625 157.660156 156.050781 157.628906 C 155.308594 157.582031 154.671875 157.589844 154.214844 157.652344 C 153.726562 157.71875 153.429688 157.847656 153.398438 158.039062 C 153.398438 158.050781 153.394531 158.0625 153.394531 158.074219 C 153.394531 158.183594 153.476562 158.292969 153.625 158.40625 C 153.769531 158.515625 153.976562 158.628906 154.238281 158.738281 C 154.28125 158.757812 154.335938 158.75 154.355469 158.71875 C 154.375 158.6875 154.359375 158.648438 154.316406 158.628906 C 154.070312 158.527344 153.875 158.421875 153.746094 158.324219 C 153.632812 158.238281 153.570312 158.15625 153.570312 158.085938 C 153.570312 158.078125 153.570312 158.070312 153.570312 158.066406 C 153.59375 157.933594 153.84375 157.835938 154.257812 157.777344 C 154.703125 157.71875 155.320312 157.710938 156.050781 157.753906 C 156.558594 157.789062 157.113281 157.847656 157.699219 157.933594 C 158.859375 158.105469 159.910156 158.355469 160.667969 158.617188 C 161.398438 158.871094 161.851562 159.125 161.851562 159.328125 C 161.851562 159.40625 161.773438 159.472656 161.632812 159.527344 C 161.46875 159.589844 161.222656 159.636719 160.914062 159.664062 " fill-opacity="1" fill-rule="nonzero"/></g><g clip-path="url(#3bc7ea59bc)"><path fill="#000000" d="M 160.832031 155.882812 L 160.835938 155.882812 C 160.867188 156.269531 161.175781 156.578125 161.5625 156.605469 L 161.5625 156.613281 C 161.175781 156.640625 160.867188 156.949219 160.835938 157.335938 L 160.832031 157.335938 C 160.804688 156.949219 160.496094 156.640625 160.109375 156.613281 L 160.109375 156.605469 C 160.496094 156.578125 160.804688 156.269531 160.832031 155.882812 " fill-opacity="1" fill-rule="evenodd"/></g><path fill="#000000" d="M 161.574219 157.21875 L 161.578125 157.21875 C 161.589844 157.382812 161.71875 157.515625 161.886719 157.527344 C 161.71875 157.539062 161.589844 157.671875 161.578125 157.835938 L 161.574219 157.835938 C 161.5625 157.671875 161.429688 157.539062 161.265625 157.527344 C 161.429688 157.515625 161.5625 157.382812 161.574219 157.21875 " fill-opacity="1" fill-rule="evenodd"/></svg>