<svg xmlns="http://www.w3.org/2000/svg" xmlns:xlink="http://www.w3.org/1999/xlink" width="500" zoomAndPan="magnify" viewBox="0 0 375 374.999991" height="500" preserveAspectRatio="xMidYMid meet" version="1.0"><defs><g/></defs><g fill="#000000" fill-opacity="1"><g transform="translate(103.867389, 223.299485)"><g><path d="M 89.203125 -1.703125 C 89.390625 -1.328125 89.335938 -0.945312 89.046875 -0.5625 C 88.765625 -0.1875 88.390625 0 87.921875 0 L 68.3125 0 C 67.65625 0 67.226562 -0.285156 67.03125 -0.859375 L 44.59375 -64.203125 L 22.4375 -0.859375 C 22.34375 -0.285156 21.867188 0 21.015625 0 L 1.5625 0 C 0.894531 0 0.441406 -0.1875 0.203125 -0.5625 C -0.0234375 -0.945312 -0.046875 -1.328125 0.140625 -1.703125 L 43.171875 -112.765625 C 43.367188 -113.335938 43.84375 -113.625 44.59375 -113.625 C 45.351562 -113.625 45.828125 -113.335938 46.015625 -112.765625 Z M 89.203125 -1.703125 "/></g></g></g><g fill="#000000" fill-opacity="1"><g transform="translate(188.268509, 273.282616)"><g><path d="M 59.234375 -92.46875 L 81.09375 -92.46875 L 45.59375 -0.703125 C 45.40625 -0.234375 44.976562 0 44.3125 0 C 43.644531 0 43.171875 -0.234375 42.890625 -0.703125 L 0.140625 -111.921875 C -0.046875 -112.390625 -0.0234375 -112.789062 0.203125 -113.125 C 0.441406 -113.457031 0.847656 -113.625 1.421875 -113.625 L 20.734375 -113.625 C 21.585938 -113.625 22.0625 -113.335938 22.15625 -112.765625 L 44.3125 -50.84375 Z M 59.234375 -92.46875 "/></g></g></g><g fill="#000000" fill-opacity="1"><g transform="translate(106.15269, 253.911444)"><g><path d="M 2.5625 0 L -0.046875 0 L 3.65625 -10.03125 L 6.234375 -10.03125 L 9.859375 0 L 7.265625 0 L 6.734375 -1.6875 L 3.09375 -1.6875 Z M 4.890625 -7.5625 C 4.804688 -7.269531 4.710938 -6.953125 4.609375 -6.609375 C 4.515625 -6.273438 4.347656 -5.726562 4.109375 -4.96875 L 3.703125 -3.640625 L 6.109375 -3.640625 L 5.703125 -4.96875 C 5.554688 -5.375 5.414062 -5.800781 5.28125 -6.25 C 5.144531 -6.707031 5.015625 -7.144531 4.890625 -7.5625 Z M 4.890625 -7.5625 "/></g></g></g><g fill="#000000" fill-opacity="1"><g transform="translate(124.710314, 253.911444)"><g><path d="M 3.25 -3.234375 L 3.25 0 L 0.765625 0 L 0.765625 -10.03125 L 4.4375 -10.03125 C 5.976562 -10.03125 7.070312 -9.769531 7.71875 -9.25 C 8.375 -8.726562 8.703125 -7.859375 8.703125 -6.640625 C 8.703125 -5.816406 8.523438 -5.144531 8.171875 -4.625 C 7.828125 -4.113281 7.304688 -3.738281 6.609375 -3.5 L 9.0625 0 L 6.078125 0 L 4 -3.234375 Z M 6.1875 -6.640625 C 6.1875 -7.066406 6.054688 -7.363281 5.796875 -7.53125 C 5.546875 -7.707031 5.09375 -7.796875 4.4375 -7.796875 L 3.25 -7.796875 L 3.25 -5.234375 L 4.4375 -5.234375 C 5.09375 -5.234375 5.546875 -5.335938 5.796875 -5.546875 C 6.054688 -5.753906 6.1875 -6.117188 6.1875 -6.640625 Z M 6.1875 -6.640625 "/></g></g></g><g fill="#000000" fill-opacity="1"><g transform="translate(142.660085, 253.911444)"><g><path d="M 8.140625 -10.03125 L 8.140625 -7.796875 L 5.40625 -7.796875 L 5.40625 0 L 2.921875 0 L 2.921875 -7.796875 L 0.1875 -7.796875 L 0.1875 -10.03125 Z M 8.140625 -10.03125 "/></g></g></g><g fill="#000000" fill-opacity="1"><g transform="translate(159.714069, 253.911444)"><g><path d="M 10.8125 -10.03125 L 10.8125 0 L 8.5 0 L 8.5 -6.015625 L 6.78125 -1.921875 L 4.765625 -1.921875 L 3.09375 -6.015625 L 3.09375 0 L 0.765625 0 L 0.765625 -10.03125 L 3.796875 -10.03125 L 5.828125 -4.96875 L 7.90625 -10.03125 Z M 10.8125 -10.03125 "/></g></g></g><g fill="#000000" fill-opacity="1"><g transform="translate(180.015268, 253.911444)"><g><path d="M 7.6875 -2.3125 L 7.6875 0 L 0.765625 0 L 0.765625 -10.03125 L 7.53125 -10.03125 L 7.53125 -7.796875 L 3.25 -7.796875 L 3.25 -6.125 L 6.9375 -6.125 L 6.9375 -4.046875 L 3.25 -4.046875 L 3.25 -2.3125 Z M 7.6875 -2.3125 "/></g></g></g><g fill="#000000" fill-opacity="1"><g transform="translate(237.965408, 172.652961)"><g><path d="M 7.21875 -7.6875 L 7.21875 0 L 5.40625 0 L 2.359375 -4.4375 L 2.359375 0 L 0.59375 0 L 0.59375 -7.6875 L 2.390625 -7.6875 L 5.4375 -3.078125 L 5.4375 -7.6875 Z M 7.21875 -7.6875 "/></g></g></g><g fill="#000000" fill-opacity="1"><g transform="translate(246.392434, 172.652961)"><g><path d="M 5.875 -1.78125 L 5.875 0 L 0.59375 0 L 0.59375 -7.6875 L 5.765625 -7.6875 L 5.765625 -5.96875 L 2.484375 -5.96875 L 2.484375 -4.6875 L 5.3125 -4.6875 L 5.3125 -3.09375 L 2.484375 -3.09375 L 2.484375 -1.78125 Z M 5.875 -1.78125 "/></g></g></g><g fill="#000000" fill-opacity="1"><g transform="translate(253.202677, 172.652961)"><g><path d="M 2.484375 -2.15625 L 2.484375 0 L 0.59375 0 L 0.59375 -7.6875 L 3.390625 -7.6875 C 4.578125 -7.6875 5.414062 -7.476562 5.90625 -7.0625 C 6.40625 -6.644531 6.65625 -5.953125 6.65625 -4.984375 C 6.65625 -4.023438 6.390625 -3.3125 5.859375 -2.84375 C 5.335938 -2.382812 4.53125 -2.15625 3.4375 -2.15625 Z M 4.734375 -4.984375 C 4.734375 -5.347656 4.632812 -5.601562 4.4375 -5.75 C 4.25 -5.894531 3.898438 -5.96875 3.390625 -5.96875 L 2.484375 -5.96875 L 2.484375 -3.828125 L 3.390625 -3.828125 C 3.910156 -3.828125 4.265625 -3.910156 4.453125 -4.078125 C 4.640625 -4.253906 4.734375 -4.554688 4.734375 -4.984375 Z M 4.734375 -4.984375 "/></g></g></g><g fill="#000000" fill-opacity="1"><g transform="translate(260.698831, 172.652961)"><g><path d="M 1.953125 0 L -0.03125 0 L 2.8125 -7.6875 L 4.78125 -7.6875 L 7.546875 0 L 5.5625 0 L 5.15625 -1.28125 L 2.359375 -1.28125 Z M 3.75 -5.796875 C 3.6875 -5.566406 3.613281 -5.320312 3.53125 -5.0625 C 3.457031 -4.800781 3.328125 -4.382812 3.140625 -3.8125 L 2.828125 -2.796875 L 4.671875 -2.796875 L 4.359375 -3.8125 C 4.253906 -4.125 4.148438 -4.453125 4.046875 -4.796875 C 3.941406 -5.140625 3.84375 -5.472656 3.75 -5.796875 Z M 3.75 -5.796875 "/></g></g></g><g fill="#000000" fill-opacity="1"><g transform="translate(268.856392, 172.652961)"><g><path d="M 5.484375 -1.78125 L 5.484375 0 L 0.59375 0 L 0.59375 -7.6875 L 2.484375 -7.6875 L 2.484375 -1.78125 Z M 5.484375 -1.78125 "/></g></g></g></svg>